<svg xmlns="http://www.w3.org/2000/svg" xmlns:xlink="http://www.w3.org/1999/xlink" width="200" zoomAndPan="magnify" viewBox="0 0 150 149.999998" height="200" preserveAspectRatio="xMidYMid meet" version="1.0"><rect x="-15" width="180" fill="#ffffff" y="-15" height="179.999997" fill-opacity="1"/><rect x="-15" width="180" fill="#ffffff" y="-15" height="179.999997" fill-opacity="1"/><rect x="-15" width="180" fill="#ffffff" y="-15" height="179.999997" fill-opacity="1"/><path fill="#e6ad61" d="M 10.570312 36 C 9.429688 39.554688 10.394531 43.546875 12.472656 46.640625 C 14.554688 49.742188 17.640625 52.035156 20.898438 53.863281 C 17.414062 53.695312 14.003906 52.269531 11.453125 49.894531 C 10.46875 53.679688 12.394531 57.792969 15.425781 60.261719 C 18.460938 62.734375 22.414062 63.800781 26.304688 64.265625 C 23.953125 65.585938 21.160156 66.105469 18.488281 65.730469 C 18.523438 65.734375 18.679688 66.390625 18.707031 66.460938 C 18.792969 66.714844 18.894531 66.957031 19.011719 67.199219 C 19.242188 67.683594 19.519531 68.140625 19.832031 68.566406 C 20.480469 69.433594 21.285156 70.179688 22.191406 70.769531 C 23.105469 71.363281 24.125 71.804688 25.1875 72.042969 C 26.3125 72.300781 27.507812 72.296875 28.652344 72.277344 C 30.289062 72.25 31.921875 72.085938 33.460938 71.527344 C 33.230469 70.578125 33.222656 69.59375 33.511719 68.648438 C 34.117188 66.671875 35.972656 65.214844 38 64.796875 C 40.03125 64.386719 42.632812 64.507812 44.402344 65.578125 C 42.671875 64.09375 41.316406 61.753906 39.492188 60.089844 C 29.394531 50.84375 21.703125 39 17.375 26.015625 C 17.039062 25.007812 16.578125 23.84375 15.554688 23.554688 C 13.921875 23.089844 12.769531 25.175781 12.597656 26.859375 C 11.882812 33.734375 15.917969 40.125 19.957031 45.738281 C 16.828125 42.492188 13.699219 39.25 10.570312 36 Z M 10.570312 36 " fill-opacity="1" fill-rule="nonzero"/><path fill="#b65335" d="M 42.859375 100.523438 C 42.769531 100.53125 42.675781 100.550781 42.585938 100.582031 C 41.507812 100.980469 41.789062 101.808594 41.75 102.773438 C 41.714844 103.695312 41.351562 104.578125 41.226562 105.492188 C 41.117188 106.296875 41.191406 107.101562 41.40625 107.882812 C 41.695312 108.925781 42.230469 109.925781 42.898438 110.789062 C 44.054688 112.296875 45.574219 113.480469 47.050781 114.683594 C 50.148438 117.191406 53.136719 119.847656 55.996094 122.625 C 56.152344 122.78125 56.3125 122.933594 56.46875 123.085938 C 57.039062 123.589844 58.023438 123.722656 58.890625 123.660156 C 59.199219 123.640625 59.496094 123.59375 59.753906 123.53125 C 60.707031 123.289062 61.570312 122.785156 62.425781 122.292969 C 65.011719 120.785156 67.597656 119.273438 70.027344 117.523438 C 71.105469 116.75 72.167969 115.914062 73.003906 114.875 C 73.363281 114.433594 73.675781 113.949219 73.925781 113.4375 C 74.261719 112.75 74.46875 112.007812 74.503906 111.246094 C 74.535156 110.542969 74.417969 109.828125 74.5625 109.140625 C 74.652344 108.722656 74.84375 108.3125 74.828125 107.886719 C 74.808594 107.335938 74.414062 106.816406 73.890625 106.644531 C 73.875 106.636719 73.859375 106.628906 73.835938 106.621094 C 73.089844 106.425781 68.15625 107.421875 65.621094 107.371094 C 60.5 107.269531 55.496094 105.820312 50.738281 103.929688 C 48.792969 103.15625 46.882812 102.308594 45.003906 101.390625 C 44.390625 101.089844 43.59375 100.457031 42.859375 100.523438 Z M 42.859375 100.523438 " fill-opacity="1" fill-rule="nonzero"/><path fill="#ffd3ca" d="M 41.410156 107.882812 L 41.40625 107.882812 C 42.660156 116.949219 42.382812 128.679688 42.457031 137.980469 C 42.46875 139.453125 42.484375 140.960938 42.972656 142.351562 C 43.460938 143.746094 44.511719 145.03125 45.945312 145.394531 C 47.332031 145.746094 48.832031 145.167969 49.890625 144.207031 C 50.945312 143.242188 51.628906 141.941406 52.195312 140.628906 C 54.636719 135.003906 55.324219 128.714844 55.996094 122.628906 C 53.136719 119.847656 50.148438 117.195312 47.050781 114.683594 C 45.574219 113.484375 44.054688 112.296875 42.894531 110.789062 C 42.230469 109.925781 41.695312 108.929688 41.410156 107.882812 Z M 41.410156 107.882812 " fill-opacity="1" fill-rule="nonzero"/><path fill="#ffd3ca" d="M 58.890625 123.660156 L 58.890625 123.664062 C 62.976562 130.714844 66.675781 138.214844 69.941406 145.679688 C 70.324219 146.558594 70.710938 147.457031 71.3125 148.210938 C 71.917969 148.960938 72.769531 149.566406 73.734375 149.640625 C 75.226562 149.765625 76.554688 148.59375 77.203125 147.253906 C 77.878906 145.84375 78.007812 144.277344 77.945312 142.703125 C 77.914062 142.007812 77.851562 141.3125 77.785156 140.628906 C 76.871094 131.554688 75.855469 122.355469 73.925781 113.441406 C 73.679688 113.953125 73.363281 114.4375 73.007812 114.878906 C 72.167969 115.914062 71.109375 116.75 70.027344 117.527344 C 67.601562 119.277344 65.011719 120.789062 62.425781 122.296875 C 61.574219 122.792969 60.710938 123.292969 59.757812 123.535156 C 59.5 123.59375 59.203125 123.644531 58.890625 123.660156 Z M 58.890625 123.660156 " fill-opacity="1" fill-rule="nonzero"/><path fill="#000000" d="M 58.921875 103.199219 C 58.902344 103.441406 58.917969 103.777344 59.046875 103.992188 C 59.183594 104.226562 59.484375 104.335938 59.722656 104.179688 C 59.929688 104.046875 60 103.777344 60.019531 103.550781 C 60.042969 103.246094 60.050781 102.9375 60.066406 102.632812 C 60.074219 102.457031 60.085938 102.285156 60.089844 102.113281 C 60.089844 102.003906 60.066406 101.890625 60 101.800781 C 59.929688 101.714844 59.828125 101.640625 59.742188 101.644531 C 59.609375 101.652344 59.488281 101.703125 59.398438 101.789062 C 59.050781 102.128906 58.972656 102.625 58.921875 103.199219 Z M 58.921875 103.199219 " fill-opacity="1" fill-rule="nonzero"/><path fill="#000000" d="M 58.851562 47.828125 C 59.679688 47.574219 60.527344 47.507812 61.355469 47.773438 C 62.925781 48.265625 64.699219 49.863281 64.144531 51.671875 C 64.03125 52.035156 64.527344 52.222656 64.691406 51.882812 C 65.167969 50.886719 64.894531 49.683594 64.320312 48.789062 C 63.730469 47.882812 62.796875 47.195312 61.761719 46.882812 C 60.757812 46.582031 59.558594 46.585938 58.578125 47.011719 C 57.683594 47.402344 56.632812 48.359375 56.601562 49.316406 C 56.597656 49.457031 56.742188 49.546875 56.800781 49.457031 C 57.054688 49.078125 57.273438 48.664062 57.640625 48.382812 C 57.988281 48.109375 58.433594 47.960938 58.851562 47.828125 Z M 58.851562 47.828125 " fill-opacity="1" fill-rule="nonzero"/><path fill="#000000" d="M 64.691406 60.734375 C 64.351562 61.441406 64.332031 62.273438 64.34375 63.003906 C 64.363281 63.746094 64.671875 64.457031 65.136719 65.03125 C 65.800781 65.859375 67.082031 65.976562 68.039062 65.527344 C 68.996094 65.074219 69.667969 64.175781 70.128906 63.226562 C 68.390625 62.074219 66.863281 60.847656 66.039062 58.988281 C 65.429688 59.398438 65.011719 60.074219 64.691406 60.734375 Z M 64.691406 60.734375 " fill-opacity="1" fill-rule="nonzero"/><path fill="#ffd3ca" d="M 73.644531 82.464844 C 73.191406 81.667969 72.398438 81.101562 71.632812 80.585938 C 70.660156 79.925781 69.671875 79.277344 68.679688 78.644531 C 61.097656 73.800781 52.949219 69.640625 44.84375 65.789062 C 44.695312 65.714844 44.550781 65.644531 44.402344 65.578125 C 42.632812 64.507812 40.027344 64.386719 38 64.796875 C 35.972656 65.214844 34.117188 66.671875 33.507812 68.648438 C 33.21875 69.59375 33.230469 70.578125 33.460938 71.527344 C 33.808594 72.972656 34.675781 74.339844 35.777344 75.355469 C 37.609375 77.046875 39.996094 77.984375 42.332031 78.855469 C 43.039062 79.117188 43.746094 79.375 44.453125 79.636719 C 50.242188 81.75 56.09375 83.707031 61.941406 85.667969 C 63.421875 86.160156 65.011719 86.664062 66.515625 86.25 C 67.78125 85.90625 68.90625 84.933594 70.214844 85.027344 C 71.121094 85.09375 72.019531 85.675781 72.886719 85.394531 C 73.019531 85.351562 73.140625 85.289062 73.25 85.210938 C 73.332031 85.15625 73.410156 85.085938 73.480469 85.011719 C 73.039062 84.585938 73.304688 83.695312 73.96875 83.703125 C 73.976562 83.382812 73.917969 83.058594 73.800781 82.777344 C 73.753906 82.664062 73.703125 82.558594 73.644531 82.464844 Z M 73.644531 82.464844 " fill-opacity="1" fill-rule="nonzero"/><path fill="#ffd3ca" d="M 74.511719 94.230469 C 74.386719 91.238281 74.054688 88.257812 73.519531 85.316406 L 73.519531 85.3125 L 73.25 85.210938 C 73.140625 85.289062 73.023438 85.351562 72.886719 85.394531 C 72.019531 85.675781 71.121094 85.09375 70.214844 85.027344 C 68.90625 84.933594 67.785156 85.90625 66.519531 86.25 C 65.011719 86.664062 63.421875 86.160156 61.941406 85.667969 C 56.09375 83.707031 50.242188 81.75 44.453125 79.636719 L 44.398438 79.773438 C 42.195312 86.425781 41.660156 93.617188 42.859375 100.523438 C 43.59375 100.457031 44.390625 101.089844 45.003906 101.390625 C 46.882812 102.308594 48.796875 103.15625 50.738281 103.929688 C 55.496094 105.820312 60.5 107.273438 65.621094 107.371094 C 68.160156 107.421875 73.09375 106.425781 73.835938 106.621094 L 73.855469 106.367188 C 74.457031 102.351562 74.675781 98.285156 74.511719 94.230469 Z M 59.046875 103.992188 C 58.917969 103.777344 58.90625 103.441406 58.921875 103.199219 C 58.972656 102.625 59.050781 102.128906 59.398438 101.789062 C 59.488281 101.703125 59.605469 101.652344 59.742188 101.644531 C 59.828125 101.640625 59.929688 101.714844 59.996094 101.800781 C 60.066406 101.890625 60.085938 102.003906 60.085938 102.113281 C 60.082031 102.285156 60.070312 102.457031 60.0625 102.632812 C 60.046875 102.9375 60.039062 103.246094 60.019531 103.550781 C 59.996094 103.777344 59.929688 104.046875 59.722656 104.179688 C 59.484375 104.335938 59.183594 104.226562 59.046875 103.992188 Z M 59.046875 103.992188 " fill-opacity="1" fill-rule="nonzero"/><path fill="#ffd3ca" d="M 73.96875 83.703125 C 73.308594 83.695312 73.039062 84.585938 73.480469 85.011719 C 73.792969 84.675781 73.957031 84.191406 73.96875 83.703125 Z M 73.96875 83.703125 " fill-opacity="1" fill-rule="nonzero"/><path fill="#ffd3ca" d="M 85.457031 86.640625 C 81.605469 84.953125 77.640625 83.550781 73.648438 82.464844 C 73.703125 82.5625 73.753906 82.667969 73.800781 82.777344 C 73.921875 83.0625 73.976562 83.382812 73.96875 83.703125 C 74.03125 83.703125 74.097656 83.710938 74.164062 83.726562 C 77.933594 84.683594 81.695312 85.65625 85.457031 86.640625 Z M 85.457031 86.640625 " fill-opacity="1" fill-rule="nonzero"/><path fill="#ffd3ca" d="M 92.320312 90.011719 C 90.511719 89.527344 88.707031 89.042969 86.898438 88.570312 C 82.542969 87.421875 78.183594 86.296875 73.820312 85.191406 C 73.675781 85.15625 73.566406 85.09375 73.480469 85.007812 C 73.410156 85.085938 73.332031 85.15625 73.25 85.210938 L 73.515625 85.3125 L 73.515625 85.316406 C 74.054688 88.257812 74.382812 91.238281 74.507812 94.226562 C 82.6875 98.746094 93.699219 103.371094 102.730469 105.789062 C 102.972656 104.410156 103.382812 102.4375 104.335938 101.417969 C 105.109375 100.589844 106.246094 100.144531 106.945312 99.253906 C 107.140625 99.003906 107.289062 98.722656 107.386719 98.421875 C 107.492188 98.117188 107.546875 97.796875 107.550781 97.472656 C 107.566406 96.402344 107.066406 95.3125 106.15625 94.738281 C 104.695312 93.824219 102.070312 94.164062 101.3125 95.707031 C 99.769531 94.582031 98.183594 93.511719 96.550781 92.488281 C 95.167969 91.625 93.757812 90.800781 92.320312 90.011719 Z M 92.320312 90.011719 " fill-opacity="1" fill-rule="nonzero"/><path fill="#b65335" d="M 92.320312 90.011719 C 90.085938 88.789062 87.792969 87.660156 85.457031 86.640625 C 81.695312 85.65625 77.933594 84.683594 74.164062 83.726562 C 74.097656 83.707031 74.03125 83.703125 73.96875 83.703125 C 73.957031 84.191406 73.792969 84.675781 73.480469 85.011719 C 73.566406 85.09375 73.675781 85.15625 73.820312 85.191406 C 78.1875 86.296875 82.542969 87.421875 86.898438 88.570312 C 88.707031 89.046875 90.511719 89.53125 92.320312 90.011719 Z M 92.320312 90.011719 " fill-opacity="1" fill-rule="nonzero"/><path fill="#b65335" d="M 85.457031 86.640625 C 87.792969 87.664062 90.085938 88.792969 92.320312 90.015625 C 94.574219 90.617188 96.828125 91.226562 99.078125 91.839844 C 99.558594 91.503906 99.953125 91.070312 100.238281 90.605469 C 99.304688 90.347656 98.371094 90.09375 97.433594 89.839844 C 93.445312 88.753906 89.453125 87.6875 85.457031 86.640625 Z M 85.457031 86.640625 " fill-opacity="1" fill-rule="nonzero"/><path fill="#000000" d="M 88.441406 59.347656 C 88.59375 58.398438 88.269531 57.1875 87.730469 56.402344 C 87.121094 55.523438 86.070312 54.976562 85.039062 54.769531 C 83.980469 54.554688 82.828125 54.71875 81.886719 55.242188 C 80.957031 55.765625 80.148438 56.695312 80.09375 57.800781 C 80.074219 58.175781 80.605469 58.242188 80.675781 57.867188 C 81.035156 56.011719 83.300781 55.558594 84.914062 55.863281 C 85.773438 56.023438 86.453125 56.441406 87.054688 57.058594 C 87.363281 57.367188 87.625 57.695312 87.804688 58.101562 C 87.992188 58.519531 88.082031 58.914062 88.128906 59.367188 C 88.140625 59.476562 88.421875 59.449219 88.441406 59.347656 Z M 88.441406 59.347656 " fill-opacity="1" fill-rule="nonzero"/><path fill="#ffd3ca" d="M 68.039062 65.527344 C 67.082031 65.976562 65.800781 65.859375 65.136719 65.03125 C 64.671875 64.457031 64.363281 63.746094 64.34375 63.003906 C 64.332031 62.273438 64.351562 61.445312 64.691406 60.734375 C 65.011719 60.074219 65.429688 59.398438 66.039062 58.988281 C 66.863281 60.847656 68.390625 62.074219 70.128906 63.226562 C 69.667969 64.171875 68.996094 65.074219 68.039062 65.527344 Z M 94.328125 41.171875 C 93.382812 38.648438 91.136719 36.835938 88.777344 35.527344 C 82.878906 32.25 75.929688 31.445312 69.183594 31.34375 C 65.585938 31.292969 61.957031 31.421875 58.480469 32.335938 C 55.007812 33.253906 51.027344 35.449219 48.957031 38.339844 C 46.832031 40.929688 45.539062 44.1875 45.300781 47.519531 C 45.371094 46.46875 44.414062 45.515625 43.363281 45.382812 C 43.011719 45.339844 42.660156 45.371094 42.324219 45.46875 C 41.652344 45.65625 41.035156 46.089844 40.582031 46.632812 C 39.90625 47.449219 39.566406 48.492188 39.375 49.535156 C 39.003906 51.527344 39.125 53.609375 39.722656 55.546875 C 40.214844 57.132812 41.234375 58.785156 42.871094 59.082031 C 42.898438 61.359375 43.226562 64.335938 44.84375 65.789062 C 52.949219 69.640625 61.097656 73.800781 68.679688 78.644531 C 72.101562 80.507812 77.730469 80.476562 81.804688 80.210938 C 84.046875 80.070312 86.320312 79.488281 88.296875 78.433594 C 89.914062 77.570312 91.328125 76.390625 92.359375 74.863281 C 92.957031 73.976562 93.425781 72.976562 94.226562 72.277344 C 95.210938 71.421875 96.566406 71.121094 97.636719 70.378906 C 99.566406 69.042969 100.277344 66.496094 100.269531 64.15625 C 100.265625 63.089844 100.101562 61.941406 99.492188 61.101562 C 99.363281 60.921875 99.210938 60.753906 99.035156 60.605469 C 98.105469 59.824219 96.386719 60.015625 95.949219 61.085938 C 95.925781 61.160156 95.902344 61.234375 95.878906 61.304688 C 95.898438 61.230469 95.917969 61.15625 95.949219 61.085938 C 97.117188 57.421875 98.59375 53.859375 100.367188 50.441406 C 100.78125 49.652344 101.304688 48.195312 100.878906 47.84375 C 100.457031 47.488281 99.804688 47.558594 99.320312 47.828125 C 98.839844 48.097656 98.472656 48.53125 98.0625 48.898438 C 96.53125 50.277344 94.289062 50.820312 92.296875 50.300781 C 91.601562 50.117188 90.804688 49.507812 91.09375 48.851562 C 91.25 48.488281 91.667969 48.335938 92.023438 48.167969 C 94.457031 47.007812 95.269531 43.699219 94.328125 41.171875 Z M 56.800781 49.457031 C 56.738281 49.546875 56.597656 49.457031 56.601562 49.316406 C 56.628906 48.359375 57.683594 47.402344 58.578125 47.011719 C 59.558594 46.585938 60.757812 46.582031 61.757812 46.882812 C 62.796875 47.195312 63.730469 47.882812 64.316406 48.789062 C 64.890625 49.683594 65.167969 50.886719 64.691406 51.882812 C 64.527344 52.226562 64.03125 52.035156 64.144531 51.671875 C 64.699219 49.863281 62.921875 48.265625 61.355469 47.773438 C 60.527344 47.507812 59.675781 47.574219 58.851562 47.828125 C 58.433594 47.960938 57.984375 48.109375 57.636719 48.382812 C 57.273438 48.664062 57.054688 49.078125 56.800781 49.457031 Z M 80.675781 57.871094 C 80.605469 58.246094 80.074219 58.175781 80.09375 57.800781 C 80.148438 56.695312 80.957031 55.765625 81.886719 55.246094 C 82.828125 54.71875 83.980469 54.558594 85.039062 54.773438 C 86.066406 54.976562 87.121094 55.527344 87.730469 56.402344 C 88.269531 57.1875 88.59375 58.398438 88.441406 59.347656 C 88.421875 59.449219 88.140625 59.476562 88.128906 59.371094 C 88.082031 58.917969 87.992188 58.523438 87.804688 58.101562 C 87.625 57.699219 87.363281 57.371094 87.054688 57.058594 C 86.453125 56.445312 85.769531 56.027344 84.914062 55.863281 C 83.300781 55.558594 81.035156 56.011719 80.675781 57.871094 Z M 80.675781 57.871094 " fill-opacity="1" fill-rule="nonzero"/><path fill="#e6ad61" d="M 92.320312 90.011719 C 93.757812 90.800781 95.167969 91.625 96.550781 92.492188 L 96.554688 92.488281 C 97.503906 92.632812 98.378906 92.339844 99.082031 91.839844 C 96.828125 91.226562 94.574219 90.617188 92.320312 90.011719 Z M 92.320312 90.011719 " fill-opacity="1" fill-rule="nonzero"/><path fill="#e6ad61" d="M 85.457031 86.640625 C 89.453125 87.6875 93.445312 88.753906 97.433594 89.835938 C 98.371094 90.09375 99.304688 90.347656 100.238281 90.601562 C 100.558594 90.09375 100.738281 89.546875 100.738281 89.066406 C 100.742188 87.511719 99.382812 86.074219 97.824219 85.988281 C 101.207031 85.957031 104.648438 85.78125 107.832031 84.636719 C 111.011719 83.488281 113.9375 81.222656 115.144531 78.066406 C 115.433594 77.304688 115.621094 76.46875 115.464844 75.667969 C 115.308594 74.863281 114.746094 74.101562 113.953125 73.898438 C 113.164062 73.695312 112.351562 74.054688 111.609375 74.386719 C 104.511719 77.570312 96.066406 78.832031 88.296875 78.4375 C 86.324219 79.492188 84.050781 80.070312 81.808594 80.214844 C 77.730469 80.476562 72.101562 80.507812 68.683594 78.644531 C 69.675781 79.28125 70.660156 79.925781 71.632812 80.585938 C 72.398438 81.101562 73.191406 81.667969 73.648438 82.464844 C 77.640625 83.550781 81.605469 84.953125 85.457031 86.640625 Z M 85.457031 86.640625 " fill-opacity="1" fill-rule="nonzero"/><path fill="#e6ad61" d="M 88.777344 35.527344 C 91.136719 36.835938 93.382812 38.648438 94.328125 41.171875 C 95.269531 43.699219 94.457031 47.007812 92.023438 48.164062 C 91.667969 48.335938 91.25 48.488281 91.09375 48.851562 C 90.804688 49.507812 91.601562 50.117188 92.296875 50.300781 C 94.289062 50.820312 96.53125 50.277344 98.0625 48.898438 C 98.472656 48.527344 98.839844 48.097656 99.320312 47.828125 C 99.804688 47.558594 100.457031 47.488281 100.878906 47.84375 C 101.304688 48.195312 100.78125 49.652344 100.367188 50.441406 C 98.59375 53.859375 97.117188 57.421875 95.949219 61.085938 C 96.386719 60.011719 98.105469 59.820312 99.035156 60.605469 C 99.210938 60.75 99.363281 60.921875 99.492188 61.101562 C 102.511719 61.191406 105.554688 60.125 107.851562 58.171875 C 110.171875 56.203125 111.71875 53.351562 112.101562 50.339844 C 112.296875 48.832031 112.238281 47.199219 113.078125 45.933594 C 113.582031 45.171875 114.355469 44.636719 115.089844 44.085938 C 119.242188 41 122.734375 36.921875 124.679688 32.132812 C 126.625 27.34375 126.949219 21.824219 125.113281 16.992188 C 123.269531 12.160156 119.167969 8.136719 114.160156 6.832031 C 109.144531 5.523438 103.371094 7.183594 100.152344 11.234375 L 99.859375 11.445312 C 94.628906 3.875 84.929688 -0.402344 75.796875 0.917969 C 74.214844 1.144531 72.648438 1.527344 71.050781 1.507812 C 69.773438 1.496094 68.511719 1.222656 67.246094 1.019531 C 61.910156 0.15625 56.078125 0.0585938 51.328125 2.632812 C 46.449219 5.28125 39.503906 13.730469 38.648438 19.625 C 37.699219 27.558594 38.9375 38.210938 42.320312 45.46875 C 42.660156 45.371094 43.007812 45.335938 43.359375 45.382812 C 44.414062 45.511719 45.367188 46.464844 45.300781 47.519531 C 45.535156 44.1875 46.828125 40.929688 48.953125 38.339844 C 51.023438 35.445312 55.007812 33.253906 58.476562 32.335938 C 61.953125 31.421875 65.582031 31.289062 69.179688 31.34375 C 75.929688 31.445312 82.878906 32.25 88.777344 35.527344 Z M 88.777344 35.527344 " fill-opacity="1" fill-rule="nonzero"/><path fill="#b65335" d="M 108.421875 94.429688 C 108.984375 94.582031 109.550781 94.742188 110.113281 94.902344 C 111.515625 95.296875 112.917969 95.695312 114.316406 96.09375 C 114.714844 95.695312 115.15625 95.296875 115.617188 94.90625 C 113.402344 94.269531 111.191406 93.644531 108.972656 93.027344 C 106.066406 92.207031 103.152344 91.398438 100.238281 90.601562 C 99.953125 91.066406 99.558594 91.503906 99.078125 91.839844 C 102.199219 92.691406 105.308594 93.554688 108.421875 94.429688 Z M 108.421875 94.429688 " fill-opacity="1" fill-rule="nonzero"/><path fill="#e6ad61" d="M 106.945312 99.253906 C 106.246094 100.144531 105.113281 100.589844 104.335938 101.417969 C 103.382812 102.441406 102.972656 104.414062 102.730469 105.789062 C 101.863281 111.269531 103.503906 117.074219 101.726562 122.332031 C 100.769531 125.175781 98.847656 127.632812 96.523438 129.53125 C 94.195312 131.429688 91.46875 132.796875 88.660156 133.847656 C 86.855469 134.519531 84.996094 135.078125 83.292969 135.976562 C 81.589844 136.871094 80.019531 138.164062 79.210938 139.90625 C 78.816406 140.761719 78.636719 141.738281 78.710938 142.675781 C 78.789062 143.648438 79.140625 144.589844 79.804688 145.3125 C 79.996094 145.523438 80.238281 145.722656 80.523438 145.734375 C 80.96875 145.753906 81.304688 145.285156 81.359375 144.839844 C 81.414062 144.394531 81.28125 143.945312 81.261719 143.496094 C 81.214844 142.496094 81.746094 141.527344 82.484375 140.847656 C 83.222656 140.167969 84.15625 139.738281 85.097656 139.386719 C 89.144531 137.867188 93.601562 137.582031 97.539062 135.796875 C 102.164062 133.691406 107.21875 129.667969 108.417969 124.734375 C 110.003906 118.234375 107.9375 113.386719 108.503906 108.003906 C 107.730469 107.382812 107.574219 106.242188 107.8125 105.28125 C 108.054688 104.320312 108.613281 103.476562 109.070312 102.597656 C 109.167969 102.40625 109.265625 102.195312 109.230469 101.988281 C 109.160156 101.632812 108.769531 101.457031 108.46875 101.246094 C 107.652344 100.675781 107.480469 99.53125 107.828125 98.582031 L 107.386719 98.425781 C 107.292969 98.722656 107.144531 99.003906 106.945312 99.253906 Z M 106.945312 99.253906 " fill-opacity="1" fill-rule="nonzero"/><path fill="#e6ad61" d="M 108.324219 97.746094 C 109.210938 96.765625 111.332031 96.605469 113.28125 97.257812 C 113.582031 96.867188 113.929688 96.476562 114.316406 96.09375 C 112.917969 95.695312 111.515625 95.292969 110.113281 94.902344 C 109.550781 94.742188 108.984375 94.582031 108.421875 94.429688 C 108.046875 95.273438 107.695312 96.5625 107.554688 97.472656 L 107.550781 97.472656 C 107.546875 97.796875 107.492188 98.117188 107.390625 98.421875 L 107.828125 98.582031 C 107.941406 98.273438 108.105469 97.988281 108.324219 97.746094 Z M 108.324219 97.746094 " fill-opacity="1" fill-rule="nonzero"/><path fill="#ffd3ca" d="M 112.464844 107.1875 C 114.21875 105.523438 115.230469 103.109375 115.179688 100.691406 C 115.152344 99.292969 114.601562 97.703125 113.28125 97.257812 C 111.328125 96.601562 109.210938 96.765625 108.324219 97.746094 C 108.105469 97.988281 107.9375 98.273438 107.828125 98.582031 C 107.476562 99.527344 107.648438 100.671875 108.46875 101.246094 C 108.765625 101.457031 109.160156 101.628906 109.230469 101.984375 C 109.265625 102.195312 109.167969 102.40625 109.066406 102.597656 C 108.613281 103.472656 108.050781 104.316406 107.8125 105.277344 C 107.574219 106.238281 107.730469 107.382812 108.503906 108 C 109.078125 108.460938 109.894531 108.542969 110.605469 108.34375 C 111.316406 108.144531 111.929688 107.699219 112.464844 107.1875 Z M 112.464844 107.1875 " fill-opacity="1" fill-rule="nonzero"/><path fill="#e6ad61" d="M 122.980469 75.648438 C 122.683594 78 121.875 80.296875 120.570312 82.285156 C 119.917969 83.277344 119.136719 84.191406 118.242188 84.980469 C 117.257812 85.84375 116.050781 86.433594 114.953125 87.144531 C 114.136719 87.675781 113.339844 88.234375 112.585938 88.84375 C 111.078125 90.066406 109.851562 91.289062 108.976562 93.023438 L 108.976562 93.027344 C 111.191406 93.644531 113.40625 94.273438 115.617188 94.90625 C 117.953125 92.945312 120.980469 91.058594 123.191406 89.289062 C 126.015625 87.035156 127.847656 83.585938 128.484375 80.027344 C 129.394531 74.921875 127.261719 69.816406 125.113281 65.09375 C 122.96875 60.371094 120.707031 55.359375 121.347656 50.214844 C 121.425781 49.578125 121.453125 48.757812 120.867188 48.5 C 120.394531 48.292969 119.863281 48.632812 119.511719 49.007812 C 117.628906 50.96875 117.386719 54.03125 118.035156 56.667969 C 118.679688 59.300781 120.074219 61.683594 121.128906 64.183594 C 122.652344 67.792969 123.476562 71.761719 122.980469 75.648438 Z M 122.980469 75.648438 " fill-opacity="1" fill-rule="nonzero"/><path fill="#b65335" d="M 126.886719 100.050781 C 127.511719 101.039062 128.085938 102.089844 128.785156 103.03125 C 129.425781 103.90625 130.277344 104.460938 131.363281 104.609375 C 132.355469 104.742188 133.375 104.683594 134.378906 104.675781 C 135.40625 104.667969 136.445312 104.703125 137.464844 104.554688 C 138.308594 104.429688 139.4375 104.222656 139.695312 103.257812 C 139.957031 102.28125 138.890625 101.429688 138.21875 100.910156 C 137.390625 100.273438 136.5 99.703125 135.632812 99.105469 C 134.75 98.5 133.878906 97.859375 132.976562 97.277344 C 132.09375 96.710938 131.015625 97.234375 130.097656 97.476562 C 129.121094 97.738281 128.140625 98 127.167969 98.257812 C 124.980469 97.613281 122.792969 96.972656 120.601562 96.339844 C 118.941406 95.859375 117.28125 95.378906 115.621094 94.90625 C 115.15625 95.296875 114.71875 95.695312 114.320312 96.09375 C 118.457031 97.273438 122.589844 98.476562 126.714844 99.6875 C 126.730469 99.699219 126.753906 99.707031 126.773438 99.71875 C 126.78125 99.824219 126.816406 99.9375 126.886719 100.050781 Z M 126.886719 100.050781 " fill-opacity="1" fill-rule="nonzero"/></svg>